<?xml version="1.0" standalone="no"?>
<!DOCTYPE svg PUBLIC "-//W3C//DTD SVG 20010904//EN"
 "http://www.w3.org/TR/2001/REC-SVG-20010904/DTD/svg10.dtd">
<svg version="1.0" xmlns="http://www.w3.org/2000/svg"
 width="100.000000pt" height="100.000000pt" viewBox="0 0 100.000000 100.000000"
 preserveAspectRatio="xMidYMid meet">
<metadata>
Created by potrace 1.14, written by Peter Selinger 2001-2017
</metadata>
<g transform="translate(0.000000,100.000000) scale(0.100000,-0.100000)"
fill="#000000" stroke="none">
<path d="M440 960 c-5 -3 59 -43 141 -89 l149 -85 0 -193 c0 -106 3 -193 6
-193 3 0 25 12 50 26 l44 26 0 198 0 198 -102 58 c-103 57 -103 57 -191 58
-49 1 -92 -1 -97 -4z"/>
<path d="M275 911 c-44 -25 -90 -53 -102 -62 -21 -14 -116 -169 -109 -176 2
-2 70 35 152 82 l149 86 40 -20 c22 -10 96 -53 165 -94 69 -41 127 -72 129
-70 12 10 6 105 -7 116 -27 22 -316 187 -327 186 -5 -1 -46 -22 -90 -48z"/>
<path d="M208 712 l-168 -97 0 -127 0 -127 48 -81 47 -81 5 178 5 178 162 95
c89 52 163 98 163 101 0 3 -21 17 -48 32 l-47 26 -167 -97z"/>
<path d="M860 604 l0 -179 -72 -44 c-40 -24 -104 -62 -143 -84 -38 -21 -81
-46 -94 -54 l-23 -15 43 -29 c24 -16 47 -29 51 -29 6 0 327 186 336 195 3 3 5
60 4 128 l0 123 -47 80 c-26 43 -49 81 -51 83 -2 2 -4 -76 -4 -175z"/>
<path d="M337 612 c-27 -30 -20 -66 22 -120 38 -48 45 -62 42 -89 -1 -15 -40
-18 -42 -3 -1 6 -3 15 -4 20 -1 6 -3 14 -4 20 -2 19 -31 -3 -31 -24 0 -56 65
-81 105 -41 32 31 25 65 -26 131 -38 50 -48 77 -30 88 18 11 42 -6 39 -27 -2
-14 3 -23 15 -25 16 -3 22 11 17 48 -4 39 -74 54 -103 22z"/>
<path d="M550 496 l0 -134 30 -4 c36 -5 85 14 94 37 3 9 6 55 6 101 0 77 -2
87 -25 109 -18 18 -35 25 -65 25 l-40 0 0 -134z m78 92 c13 -13 17 -153 6
-182 -3 -9 -15 -16 -25 -16 -17 0 -19 9 -19 105 0 107 7 124 38 93z"/>
<path d="M218 573 l-48 -26 -1 -96 c0 -53 -1 -142 -2 -198 l-2 -101 105 -59
105 -58 97 -1 c53 0 95 3 92 7 -2 4 -69 44 -149 89 l-145 81 -2 194 -3 194
-47 -26z"/>
<path d="M297 318 c-11 -30 0 -99 19 -113 10 -8 22 -15 26 -15 3 0 53 -28 110
-61 151 -90 167 -99 181 -99 7 0 57 26 111 58 96 55 101 60 147 137 27 44 48
83 49 87 0 4 -66 -31 -147 -79 -82 -47 -152 -86 -158 -86 -5 0 -81 41 -167 91
-87 51 -159 92 -162 92 -2 0 -6 -6 -9 -12z"/>
</g>
</svg>
